<svg width="1920" height="1080" viewBox="0 0 1920 1080" xmlns="http://www.w3.org/2000/svg"><path d="M1754,567.9999999999998C1747.8333333333333,661.7957103452485,1673.2843662072135,729.7464330396687,1575.7627457812105,800.9499095679796C1478.2411253552075,872.1533860962905,1295.4023462697937,963.4603012319732,1168.8702774439826,995.2208591698654C1042.3382086181714,1026.9814171077576,952.3425033638762,990.076910520418,816.570332826344,991.5132571953329C680.7981622888119,992.9496038702479,451.99897635651354,1073.9244820852437,354.23725421878953,1003.8389392193549C256.4755320810655,933.7533963534661,186.52696499286714,707.2326425282449,230,571.0000000000001C273.47303500713286,434.7673574717553,525.7025885584552,310.17339384296235,615.0754642615867,186.44308404988584C704.4483399647182,62.71277425680934,666.622707298852,-113.75928021325035,766.2372542187893,-171.38185875845886C865.8518011387266,-229.00443730366737,1071.6751638541402,-227.55197159718966,1212.7627457812105,-159.2923872213653C1353.8503277082807,-91.03280284554093,1522.5565367447455,116.96024962625977,1612.7627457812105,238.17564749648727C1702.9689548176755,359.39104536671476,1760.1666666666667,474.20428965475105,1754,567.9999999999998C1747.8333333333333,661.7957103452485,1673.2843662072135,729.7464330396687,1575.7627457812105,800.9499095679796" fill="#180060"/></svg>